<?xml version="1.0" encoding="UTF-8"?>
<svg version="1.1" xmlns="http://www.w3.org/2000/svg" width="1254" height="1254">
<path d="M0 0 C413.82 0 827.64 0 1254 0 C1254 413.82 1254 827.64 1254 1254 C840.18 1254 426.36 1254 0 1254 C0 840.18 0 426.36 0 0 Z " fill="#F8F3EC" transform="translate(0,0)"/>
<path d="M0 0 C1.96724277 -0.0015084 3.93448167 -0.0066477 5.90171814 -0.01184845 C26.14532183 -0.0428299 45.48748986 0.63995076 64.99998474 6.31096649 C66.0222113 6.59713837 67.04443787 6.88331024 68.09764099 7.17815399 C85.70308079 12.53324066 101.91648808 22.45500891 114.99998474 35.31096649 C115.64838318 35.9464743 116.29678162 36.58198212 116.96482849 37.23674774 C131.69264281 52.80246835 133.10711854 73.6148594 133.27342224 93.86956024 C133.2828098 94.90365241 133.2828098 94.90365241 133.29238701 95.95863533 C133.33864476 101.22188273 133.36195476 106.48503989 133.37498474 111.74846649 C133.37713863 112.52508133 133.37929253 113.30169617 133.38151169 114.10184479 C133.44699062 143.42449192 131.75694813 172.20526612 127.99998474 201.31096649 C127.8337561 202.62387665 127.8337561 202.62387665 127.66416931 203.96331024 C122.25072905 246.67315296 122.25072905 246.67315296 115.24998474 259.68596649 C114.90636902 260.34387177 114.5627533 261.00177704 114.20872498 261.67961884 C106.99614345 275.07323982 98.14964427 282.15711699 83.99998474 287.31096649 C83.31065857 287.6272702 82.6213324 287.94357391 81.91111755 288.26946259 C78.0162596 289.66290975 74.1469871 290.24240173 70.06248474 290.83440399 C68.74510315 291.02744614 68.74510315 291.02744614 67.40110779 291.22438812 C57.30210363 292.63793163 47.174643 293.33475979 36.99998474 293.93596649 C35.98311584 293.99789185 34.96624695 294.0598172 33.91856384 294.12361908 C-44.22421736 298.84111205 -123.49868677 297.5959458 -201.6308136 293.43663788 C-203.86914431 293.31790838 -206.10764034 293.20298415 -208.34620667 293.08879852 C-269.93342406 289.89074684 -269.93342406 289.89074684 -290.99610901 267.69768524 C-305.67158127 250.21871146 -305.59205221 226.09747794 -307.06251526 204.43596649 C-307.23308327 201.99144472 -307.40398514 199.54694621 -307.57521057 197.1024704 C-307.90959345 192.3019016 -308.23743715 187.50094426 -308.56105042 182.69963837 C-308.86345253 178.24090077 -309.18773495 173.78492033 -309.54093933 169.32994843 C-311.01767481 150.64057556 -311.23236073 131.95324888 -311.30328369 113.21398926 C-311.31239077 111.21331544 -311.32700229 109.21266913 -311.34169006 107.2120285 C-311.42960543 93.26738328 -311.4879965 79.88074626 -308.00001526 66.31096649 C-307.6895929 65.03825897 -307.37917053 63.76555145 -307.05934143 62.45427704 C-303.19657086 47.14273476 -295.3057082 34.82418463 -282.00001526 25.99846649 C-260.90492004 13.91942485 -234.48991944 10.71528277 -210.58155823 9.65203094 C-206.78443214 9.49134098 -206.78443214 9.49134098 -203.0554657 8.81790924 C-200.86022726 8.2764901 -198.82222179 8.08679413 -196.56593323 7.95378876 C-195.68445114 7.90017685 -194.80296906 7.84656494 -193.89477539 7.79132843 C-192.45800194 7.71017036 -192.45800194 7.71017036 -190.99220276 7.62737274 C-189.98105911 7.567668 -188.96991547 7.50796326 -187.9281311 7.44644928 C-184.57734944 7.25066839 -181.22623743 7.06154815 -177.87501526 6.87346649 C-176.71212982 6.80716034 -175.54924438 6.74085419 -174.35112 6.67253876 C-155.84997579 5.62136068 -137.34682566 4.76718093 -118.82862854 4.08513641 C-107.61772328 3.66946651 -96.4123623 3.19764187 -85.20822334 2.62687111 C-56.8038678 1.18210841 -28.44597798 0.01359269 0 0 Z " fill="#C96852" transform="translate(721.0000152587891,568.6890335083008)"/>
<path d="M0 0 C1.71407586 -0.0006767 3.42815163 -0.00164974 5.14222717 -0.00289917 C8.73878898 -0.00436887 12.33532588 -0.0022517 15.93188477 0.00244141 C20.42347971 0.00803169 24.91501401 0.00482455 29.40660667 -0.00099564 C47.28976018 -0.02066625 65.16205301 0.08243845 83.0390625 0.578125 C84.11521977 0.60724787 84.11521977 0.60724787 85.2131176 0.63695908 C93.67446957 0.87235246 102.11862501 1.24530764 110.56617069 1.78065681 C119.05447084 2.31593922 127.5516048 2.50794457 136.05273438 2.73828125 C160.68790014 3.45955314 160.68790014 3.45955314 168.66015625 5.9453125 C169.81257813 6.30367187 170.965 6.66203125 172.15234375 7.03125 C173.24804688 7.39476562 174.34375 7.75828125 175.47265625 8.1328125 C176.46523438 8.45507812 177.4578125 8.77734375 178.48046875 9.109375 C192.51863189 13.91910777 204.22412962 21.84765801 211.47265625 35.1328125 C211.85035156 35.80957031 212.22804688 36.48632812 212.6171875 37.18359375 C221.15638873 55.189475 219.65987508 79.46946363 219.65795898 99.01367188 C219.66014837 101.4988717 219.67840926 103.98362776 219.69726562 106.46875 C219.77986823 130.39105527 218.50662085 156.52350113 201.28515625 174.8828125 C184.54220849 190.65394737 161.3699935 191.23172574 139.70800781 192.82324219 C136.56529308 193.06849986 136.56529308 193.06849986 133.88085938 193.65136719 C131.24061994 194.17920094 128.74101584 194.32567311 126.05078125 194.4140625 C125.0246875 194.45144531 123.99859375 194.48882813 122.94140625 194.52734375 C121.87921875 194.56214844 120.81703125 194.59695313 119.72265625 194.6328125 C117.62359184 194.70260898 115.52462719 194.77547933 113.42578125 194.8515625 C112.49926758 194.88185547 111.57275391 194.91214844 110.61816406 194.94335938 C108.25570455 195.0856497 105.89928403 195.3345294 103.55175781 195.63549805 C96.80774485 196.40777681 90.03367498 196.33713886 83.25390625 196.37109375 C82.51432804 196.37587549 81.77474983 196.38065723 81.01276016 196.38558388 C75.33273355 196.42170379 69.65278392 196.4367742 63.97265625 196.4453125 C63.13607231 196.44705223 62.29948837 196.44879196 61.43755341 196.45058441 C36.26795445 196.49681449 11.21574678 195.883489 -13.90234375 194.2578125 C-14.58666473 194.21411655 -15.27098572 194.17042061 -15.9760437 194.12540054 C-20.52297283 193.83414176 -25.06838219 193.52479113 -29.61328125 193.203125 C-31.27579422 193.08732841 -31.27579422 193.08732841 -32.97189331 192.9691925 C-55.48721263 191.26831944 -78.92812273 187.99426914 -94.83203125 170.44140625 C-110.76708889 151.60650596 -113.06885712 127.17954267 -112.86352539 103.48266602 C-112.83983749 100.56954291 -112.84300682 97.65733662 -112.84960938 94.74414062 C-112.81297782 69.90991684 -111.0765508 43.05566546 -92.75 24.30078125 C-92.01652344 23.58535156 -91.28304688 22.86992188 -90.52734375 22.1328125 C-89.94855469 21.51019531 -89.36976563 20.88757813 -88.7734375 20.24609375 C-79.09911182 10.61505365 -64.95759092 6.20907572 -51.77001953 4.43603516 C-49.25606078 4.09613348 -46.74988044 3.71536998 -44.2421875 3.33203125 C-29.42592395 1.10802827 -14.9826327 -0.02117946 0 0 Z " fill="#FAF0E4" transform="translate(574.52734375,627.8671875)"/>
<path d="M0 0 C3.60273592 1.62655166 6.9022647 3.65582586 10.25 5.75 C11.21147949 6.33547607 12.17295898 6.92095215 13.16357422 7.52416992 C16.12017116 9.33211363 19.06149995 11.16281764 22 13 C22.88526367 13.54930176 23.77052734 14.09860352 24.68261719 14.66455078 C30.15321082 18.06149513 35.58665223 21.51269162 41 25 C41.61117676 25.39058594 42.22235352 25.78117188 42.85205078 26.18359375 C46.28826535 28.38371063 49.6687539 30.64400314 53 33 C53.82628906 33.58136719 54.65257812 34.16273438 55.50390625 34.76171875 C58.25254946 36.88892958 60.48228224 38.62957065 61.73046875 41.93359375 C62.14173864 45.91437586 60.93910138 48.66510899 58.5625 51.8125 C53.08448787 57.43237301 46.18239776 61.31957467 39.54931641 65.41699219 C35.8415951 67.71931597 32.16665067 70.07217049 28.48852539 72.42138672 C24.8916594 74.71830259 21.2894539 77.00670619 17.68457031 79.29101562 C15.78347178 80.50124568 13.8874752 81.71950743 11.99511719 82.94335938 C11.01446289 83.57564453 10.03380859 84.20792969 9.0234375 84.859375 C7.68804932 85.7251416 7.68804932 85.7251416 6.32568359 86.60839844 C2.62447407 88.82306296 -0.7093613 89.23572251 -4.96484375 89.62109375 C-8.38015206 88.57880196 -9.29853088 86.01032484 -11 83 C-11.59619141 79.79394531 -11.59619141 79.79394531 -11.7265625 76.078125 C-11.75424713 75.36569641 -11.78193176 74.65326782 -11.81045532 73.91925049 C-11.90022642 71.27959537 -11.95199645 68.64074716 -12 66 C-12.02396851 64.88906982 -12.04793701 63.77813965 -12.07263184 62.63354492 C-12.22039581 55.42372349 -12.30959983 48.2153831 -12.34101486 41.00428009 C-12.35634184 37.50428293 -12.38185328 34.0050576 -12.43212891 30.50537109 C-12.4907996 26.41491704 -12.50871222 22.32522677 -12.5234375 18.234375 C-12.54610687 16.97921082 -12.56877625 15.72404663 -12.59213257 14.43084717 C-12.56860568 4.80544216 -12.56860568 4.80544216 -9.66552734 1.71484375 C-5.98106195 -0.6555249 -4.33885613 -0.76151353 0 0 Z " fill="#C96853" transform="translate(608,681)"/>
<path d="M0 0 C5.01856773 3.20513569 9.45151316 7.48896381 12.13671875 12.859375 C12.82765863 19.88393046 12.82765863 19.88393046 10.01171875 23.859375 C7.13671875 25.859375 7.13671875 25.859375 4.07421875 26.421875 C0.4348808 25.7249805 -0.55171587 24.71030563 -2.86328125 21.859375 C-3.46140625 20.951875 -4.05953125 20.044375 -4.67578125 19.109375 C-6.76147105 16.52645318 -6.76147105 16.52645318 -10.36328125 16.234375 C-13.90405439 16.56721046 -13.90405439 16.56721046 -16.17578125 18.796875 C-22.73318837 30.69735458 -21.04601567 46.92038124 -21.42578125 60.171875 C-21.4691254 61.60612815 -21.51274376 63.04037304 -21.55664062 64.47460938 C-21.66200182 67.93610886 -21.76369937 71.39770384 -21.86328125 74.859375 C-21.06591553 74.79008789 -20.2685498 74.72080078 -19.44702148 74.64941406 C-18.38684814 74.55885742 -17.3266748 74.46830078 -16.234375 74.375 C-15.18950928 74.28508789 -14.14464355 74.19517578 -13.06811523 74.10253906 C-0.48114808 73.1475136 -0.48114808 73.1475136 4.26171875 75.234375 C6.97520268 77.58606107 7.11168836 78.58904681 7.44921875 82.234375 C7.13671875 85.859375 7.13671875 85.859375 5.76171875 88.171875 C-0.28077522 92.05633541 -7.21503186 91.95560238 -14.21484375 91.90625 C-15.46346191 91.89948242 -16.71208008 91.89271484 -17.99853516 91.88574219 C-19.41658447 91.87269043 -19.41658447 91.87269043 -20.86328125 91.859375 C-20.80269531 92.78983643 -20.74210937 93.72029785 -20.6796875 94.67895508 C-20.01179355 105.06920143 -19.39885542 115.4614289 -18.86328125 125.859375 C-18.80543457 126.97957031 -18.74758789 128.09976563 -18.68798828 129.25390625 C-18.56739504 131.89370559 -18.48455417 134.53008657 -18.42578125 137.171875 C-18.39162109 137.90317627 -18.35746094 138.63447754 -18.32226562 139.38793945 C-18.28926077 143.18487338 -18.784291 144.75748707 -21.140625 147.796875 C-24.79532888 150.56543116 -24.79532888 150.56543116 -27.86328125 150.546875 C-28.50265625 150.57136719 -29.14203125 150.59585938 -29.80078125 150.62109375 C-33.33044436 149.31752499 -35.25010432 147.14549044 -36.86328125 143.859375 C-37.60438466 139.71659168 -37.60649122 135.62254033 -37.61328125 131.421875 C-37.65783169 129.01039756 -37.70342472 126.59893918 -37.75 124.1875 C-37.76595215 122.97126953 -37.7819043 121.75503906 -37.79833984 120.50195312 C-37.89844976 114.88676556 -38.16042674 109.28127345 -38.42578125 103.671875 C-38.51086251 101.76173856 -38.59554321 99.8515842 -38.6796875 97.94140625 C-38.74075001 96.58072308 -38.80189029 95.22004339 -38.86328125 93.859375 C-40.0440625 93.91738281 -41.22484375 93.97539063 -42.44140625 94.03515625 C-43.99865836 94.08206143 -45.55595326 94.12756079 -47.11328125 94.171875 C-47.89058594 94.21376953 -48.66789062 94.25566406 -49.46875 94.29882812 C-55.25775397 94.42252479 -55.25775397 94.42252479 -58.375 91.5234375 C-60.22670737 88.20883271 -60.55071735 86.60208265 -59.86328125 82.859375 C-56.27253955 77.21578678 -56.27253955 77.21578678 -52.95288086 76.3762207 C-50.78986484 76.26922626 -48.71089815 76.33380385 -46.55078125 76.484375 C-45.81021484 76.51144531 -45.06964844 76.53851563 -44.30664062 76.56640625 C-42.49092127 76.63669216 -40.67671324 76.74430411 -38.86328125 76.859375 C-38.8789917 75.74191895 -38.89470215 74.62446289 -38.91088867 73.47314453 C-38.96614262 69.2349398 -38.99996964 64.99676508 -39.02807617 60.75830078 C-39.04294956 58.94118863 -39.06325453 57.12411094 -39.08959961 55.30712891 C-39.22414702 45.77273016 -39.09380621 36.46634453 -37.5390625 27.0390625 C-37.42209518 26.32920197 -37.30512787 25.61934143 -37.18461609 24.88796997 C-35.23854537 14.34065714 -31.08577077 7.30404693 -22.92578125 0.359375 C-16.52519972 -2.86268645 -6.52935664 -2.60105339 0 0 Z " fill="#573B28" transform="translate(426.86328125,432.140625)"/>
<path d="M0 0 C3.34282003 1.00222351 4.8875394 2.9876735 7.09765625 5.62890625 C7.63867188 8.60961914 7.63867188 8.60961914 7.50390625 12.0390625 C7.4841272 12.67812027 7.46434814 13.31717804 7.44396973 13.9756012 C7.36197874 16.19625021 7.23372081 18.4109279 7.09765625 20.62890625 C7.0497998 21.47346375 7.00194336 22.31802124 6.95263672 23.18817139 C6.5686936 29.81946478 6.09036053 36.44245464 5.59765625 43.06640625 C5.45263411 45.06962598 5.30809955 47.07288107 5.1640625 49.07617188 C4.81420243 53.92750852 4.45778654 58.77832164 4.09765625 63.62890625 C4.96567871 63.05857666 5.83370117 62.48824707 6.72802734 61.90063477 C9.94394138 59.78804589 13.16079192 57.67688688 16.37792969 55.56616211 C17.77109011 54.65183969 19.16399509 53.73712795 20.55664062 52.82202148 C22.55662329 51.50793031 24.55751568 50.19523481 26.55859375 48.8828125 C27.49461929 48.26715172 27.49461929 48.26715172 28.44955444 47.63905334 C33.44404856 44.36659688 36.99708243 42.61408804 43.09765625 43.62890625 C46.75186413 46.14117416 47.86138303 47.71756668 48.97265625 52.00390625 C47.59754192 57.70080848 43.83335366 59.50062571 39.09765625 62.62890625 C37.80750133 63.51533922 36.51851232 64.40347063 35.23046875 65.29296875 C24.49661678 72.62890625 24.49661678 72.62890625 22.09765625 72.62890625 C22.09765625 73.28890625 22.09765625 73.94890625 22.09765625 74.62890625 C22.66355469 74.87511719 23.22945312 75.12132812 23.8125 75.375 C26.49013883 76.84426849 28.42809237 78.6064306 30.66015625 80.69140625 C34.26327712 83.99736251 37.92429483 87.17401097 41.72265625 90.25390625 C42.62886719 90.99898437 43.53507813 91.7440625 44.46875 92.51171875 C46.13930155 93.85709607 47.83775224 95.16907109 49.5703125 96.43359375 C54.76281997 100.40810564 54.76281997 100.40810564 55.7265625 103.921875 C55.91284883 107.60553685 55.46999829 109.96516609 53.66015625 113.19140625 C50.50276686 114.96262469 48.33940739 115.61933335 44.71484375 115.46484375 C39.32088788 113.74199814 35.51497839 109.02704243 31.60302734 105.09521484 C29.36506824 102.91532798 26.96637809 100.96345025 24.53515625 99.00390625 C23.65085937 98.28847656 22.7665625 97.57304688 21.85546875 96.8359375 C20.42182597 95.68861714 18.98784043 94.5417118 17.54980469 93.39990234 C15.99964114 92.16827209 14.45483196 90.92991222 12.91015625 89.69140625 C11.52763672 88.59505859 11.52763672 88.59505859 10.1171875 87.4765625 C9.45074219 86.86683594 8.78429687 86.25710938 8.09765625 85.62890625 C8.09765625 84.96890625 8.09765625 84.30890625 8.09765625 83.62890625 C6.00204331 84.7093442 6.00204331 84.7093442 4.09765625 86.62890625 C3.50163446 89.54111332 3.50163446 89.54111332 3.59375 92.87109375 C3.57505859 94.10214844 3.55636719 95.33320312 3.53710938 96.6015625 C3.53646484 97.88933594 3.53582031 99.17710937 3.53515625 100.50390625 C3.5262066 103.04304946 3.50456529 105.58218737 3.46875 108.12109375 C3.46766235 109.81274658 3.46766235 109.81274658 3.46655273 111.53857422 C3.05528432 114.98386579 2.15436872 116.86091796 0.09765625 119.62890625 C-3.0946786 121.22507368 -6.43695872 121.14356739 -9.90234375 120.62890625 C-12.33353998 118.75875531 -13.54303548 117.3475228 -14.90234375 114.62890625 C-15.13950737 111.26385665 -15.06150084 107.88406127 -15.05078125 104.51171875 C-15.04863617 103.45316681 -15.04649109 102.39461487 -15.04428101 101.3039856 C-14.95692351 87.72056638 -14.29246581 74.15992418 -13.62823486 60.59533691 C-13.49362989 57.80503207 -13.36685553 55.01439196 -13.23978043 52.22373581 C-12.84952179 43.688733 -12.40557801 35.15811116 -11.90234375 26.62890625 C-11.83543335 25.48603149 -11.76852295 24.34315674 -11.69958496 23.16564941 C-11.50697365 20.07041445 -11.28583769 16.97898564 -11.05078125 13.88671875 C-10.99524078 12.99338837 -10.93970032 12.10005798 -10.88247681 11.17965698 C-10.56211097 7.39870436 -10.32353102 5.21568466 -8.07666016 2.08544922 C-5.43474838 0.3156709 -3.14800945 0.10639396 0 0 Z " fill="#583B29" transform="translate(655.90234375,429.37109375)"/>
<path d="M0 0 C5.66159152 4.56543508 10.17787511 10.77248625 11.5625 18.02734375 C13.01858725 31.70091313 11.11761049 43.06099184 2.7265625 54.18359375 C-3.46595013 61.27338882 -10.45361144 64.81346576 -19.77734375 65.7265625 C-27.79566871 66.03095446 -33.91132287 65.63479217 -40.1875 60.375 C-48.1587062 52.90394792 -51.63004719 44.03517046 -52.4140625 33.26171875 C-52.76105964 19.83923833 -48.85817566 10.35111253 -39.8125 0.5 C-29.14097928 -9.4554663 -11.52295595 -7.79748899 0 0 Z " fill="#583C29" transform="translate(599.1875,481.625)"/>
<path d="M0 0 C1.40312792 0.87300333 2.78406283 1.78418931 4.125 2.75 C5.053125 3.348125 5.98125 3.94625 6.9375 4.5625 C13.37997269 11.00497269 15.34602488 17.40629612 15.375 26.375 C15.33662587 38.53120418 12.54951178 46.5725386 4.125 55.75 C-4.77492874 62.63407431 -13.73869047 64.83158402 -24.875 63.75 C-31.85647934 61.83371858 -37.8254971 58.21394856 -41.5390625 51.9375 C-46.93142497 41.51056214 -48.83646444 31.10147514 -45.75 19.5 C-42.42279508 9.96717102 -36.62998492 3.2732835 -27.703125 -1.3828125 C-19.41233267 -3.92501678 -7.80161046 -3.83589016 0 0 Z " fill="#573C29" transform="translate(505.875,484.25)"/>
<path d="M0 0 C2.9375 1.9375 2.9375 1.9375 5 5 C5.60896784 8.87079555 5.32685573 12.51293119 4.48828125 16.328125 C2.87552007 25.15315416 3.58903082 34.41092229 6 43 C11.57743898 41.77296342 14.81117123 40.09362811 19 36 C20.0268343 34.3497306 21.03567924 32.68756133 22 31 C22.66 31 23.32 31 24 31 C24.20625 29.989375 24.4125 28.97875 24.625 27.9375 C25.72442621 23.57120734 27.25634825 19.38338822 28.875 15.1875 C29.11943848 14.52935303 29.36387695 13.87120605 29.61572266 13.19311523 C31.10491351 9.42756214 32.31435175 6.85662805 36 5 C38.21875 4.75 38.21875 4.75 40.5 5 C41.2528125 5.061875 42.005625 5.12375 42.78125 5.1875 C46.02995644 6.37716715 47.0950493 8.13560755 49 11 C49.78955078 14.45410156 49.78955078 14.45410156 50.1953125 18.390625 C50.27369354 19.09467468 50.35207458 19.79872437 50.43283081 20.52410889 C50.67955027 22.76469723 50.90333679 25.00680695 51.125 27.25 C51.43272327 30.19352342 51.7497632 33.13597299 52.0703125 36.078125 C52.14554138 36.78096619 52.22077026 37.48380737 52.29827881 38.20794678 C52.85957701 43.25963061 53.7881736 48.06983446 55 53 C55.47582224 55.98538977 55.41183353 57.9112485 55 61 C52.12277073 64.28826203 50.22835983 65.74931432 45.9375 66.625 C41.92264575 65.77077569 40.61078884 64.13546505 38 61 C36.85546875 57.44921875 36.85546875 57.44921875 36.1875 53.6875 C35.83751953 51.80611328 35.83751953 51.80611328 35.48046875 49.88671875 C35.24263672 48.45779297 35.24263672 48.45779297 35 47 C34.34 47 33.68 47 33 47 C31.70056268 48.3981127 31.70056268 48.3981127 30.375 50.1875 C27.17644928 54.04457587 23.61290142 56.973685 19 59 C17.68 59 16.36 59 15 59 C15 59.66 15 60.32 15 61 C1.54726441 61.92282485 1.54726441 61.92282485 -4.42578125 57.40234375 C-10.4399219 52.04483384 -13.56159091 45.50528548 -14.20410156 37.43701172 C-15.32634689 9.9420011 -15.32634689 9.9420011 -9.8125 1.75 C-6.15930783 -0.52309735 -4.23053168 -0.75545209 0 0 Z " fill="#593D2A" transform="translate(755,484)"/>
<path d="M0 0 C2.40547526 3.56010339 1.96767515 6.05816097 1.5625 10.3125 C-0.4375 13.3125 -0.4375 13.3125 -2.53125 13.89453125 C-3.3253125 13.97058594 -4.119375 14.04664063 -4.9375 14.125 C-5.7315625 14.21394531 -6.525625 14.30289062 -7.34375 14.39453125 C-9.4375 14.3125 -9.4375 14.3125 -11.4375 12.3125 C-16.0797434 11.86380827 -16.0797434 11.86380827 -20.375 13.375 C-22.06164729 16.45065095 -21.79348975 18.8712658 -21.4375 22.3125 C-19.48495762 26.25477604 -17.23658329 28.5493004 -13.75 31.1875 C-12.86699219 31.87585938 -11.98398437 32.56421875 -11.07421875 33.2734375 C-9.76904297 34.28277344 -9.76904297 34.28277344 -8.4375 35.3125 C-1.97707129 40.35317521 1.8283863 44.82113995 4.3125 52.6875 C4.395 53.55375 4.4775 54.42 4.5625 55.3125 C4.64886719 56.04210937 4.73523438 56.77171875 4.82421875 57.5234375 C5.2504967 63.68078568 4.04510774 67.40779112 0.3359375 72.3359375 C-4.91167594 78.18459918 -10.54192533 81.01788795 -18.48828125 81.49609375 C-27.92183444 81.68106538 -34.89962538 81.30145182 -42.08984375 74.75 C-44.27674758 72.41730258 -44.44697864 71.21013069 -44.75 67.9375 C-44.4375 64.3125 -44.4375 64.3125 -42.9375 61.875 C-39.49031316 59.72050822 -36.34274534 59.49694676 -32.4375 60.3125 C-30.7549387 61.62571858 -29.08752828 62.95863064 -27.4375 64.3125 C-21.88796294 65.03188443 -18.31287943 63.70044094 -13.4375 61.3125 C-12.76184494 58.65533494 -12.76184494 58.65533494 -13.4375 55.3125 C-17.14934201 50.35298001 -22.22796982 46.67119743 -27.0625 42.875 C-33.57833478 37.64245029 -39.53077277 30.76557171 -40.73828125 22.171875 C-40.78806534 13.2107379 -38.53622713 6.55228849 -32.3359375 -0.02734375 C-29.4889997 -2.51694985 -27.05038807 -3.55010931 -23.4375 -4.6875 C-22.261875 -5.05875 -22.261875 -5.05875 -21.0625 -5.4375 C-13.25785992 -6.18079906 -6.44646539 -4.46293758 0 0 Z " fill="#573B29" transform="translate(880.4375,479.6875)"/>
<path d="M0 0 C2.15332031 0.99926758 2.15332031 0.99926758 4 3 C4.42570937 5.91428143 4.60485673 8.46738104 4.609375 11.38671875 C4.63417938 12.61223198 4.63417938 12.61223198 4.65948486 13.86250305 C4.7080534 16.47091114 4.72935459 19.07873594 4.75 21.6875 C4.77815241 23.4564097 4.80807881 25.22529211 4.83984375 26.99414062 C4.91381428 31.32937906 4.96333439 35.66429203 5 40 C5.85924072 39.36118896 5.85924072 39.36118896 6.73583984 38.70947266 C13.66032825 33.78766197 18.52142437 32.72930908 27 34 C32.43022289 35.72692601 35.75330275 39.5119185 39 44 C40.93803077 49.81409232 40.64931581 55.94952902 38.8125 61.75 C38.214375 62.8225 37.61625 63.895 37 65 C36.401875 66.155 35.80375 67.31 35.1875 68.5 C30.60295664 74.5897097 22.04879938 78.33398448 14.69921875 79.54296875 C7.13474809 79.74481612 1.19945096 78.38256986 -4.9375 73.8125 C-13.14309706 62.62304947 -9.14568002 36.87709623 -9.23117065 23.41680908 C-9.2437121 21.68218752 -9.26122027 19.94759468 -9.28372192 18.21307373 C-9.31359338 15.75254856 -9.32350481 13.2927174 -9.328125 10.83203125 C-9.34042648 10.08606186 -9.35272797 9.34009247 -9.36540222 8.57151794 C-9.3437096 3.50545898 -9.3437096 3.50545898 -7.66308594 1.03393555 C-5.029001 -0.60366717 -3.02496276 -0.3704036 0 0 Z " fill="#593D2A" transform="translate(652,879)"/>
<path d="M0 0 C4.72334022 2.33452448 8.4590556 5.34019498 11 10 C12.02077326 15.21899112 11.80038026 20.17674148 9.3125 24.9375 C5.20613012 30.37566551 0.63327719 33.50252104 -6 35 C-9.6832322 35.22837983 -13.31571935 35.18285952 -17 35 C-14.66180678 39.86344189 -12.75427671 42.90739513 -7.86328125 45.34765625 C-2.73660521 47.14253025 1.20922135 45.96544765 6 44 C9.72400156 43.54399981 11.32595273 43.53335189 14.4375 45.6875 C16 48 16 48 16.0625 50.5 C14.44591232 54.30373572 11.72043845 55.84751352 8.37890625 58.0859375 C1.77750979 60.62243466 -8.02250113 60.23044929 -14.71484375 58.16015625 C-16.77727433 56.94720203 -18.315584 55.69677112 -20 54 C-20.62003906 53.40703125 -21.24007812 52.8140625 -21.87890625 52.203125 C-28.48063971 45.31196273 -31.20810738 39.06758388 -31.4375 29.5 C-31.10064538 18.62285573 -28.2320954 10.98513591 -20.32421875 3.390625 C-14.36109158 -1.15514218 -7.19892912 -1.03210453 0 0 Z " fill="#593E2B" transform="translate(746,901)"/>
<path d="M0 0 C0.99 0.66 1.98 1.32 3 2 C3.32470703 4.56616211 3.32470703 4.56616211 3.2578125 7.77734375 C3.23654297 9.50694336 3.23654297 9.50694336 3.21484375 11.27148438 C3.18519531 12.48126953 3.15554688 13.69105469 3.125 14.9375 C3.08167697 17.32154097 3.04242376 19.70566039 3.0078125 22.08984375 C2.98348145 23.15066162 2.95915039 24.21147949 2.93408203 25.30444336 C2.87077392 28.10055641 2.87077392 28.10055641 4 31 C6.7446344 31.58776634 6.7446344 31.58776634 10 31 C16.61420448 25.38506382 19.51936276 17.82279611 21.9375 9.7421875 C22.98655849 7.03469095 23.67265194 5.69417249 26 4 C29.5 3.5625 29.5 3.5625 33 4 C36.356624 7.21402397 36.78233021 11.0206336 37.38671875 15.43359375 C37.49345413 16.14854507 37.60018951 16.8634964 37.7101593 17.60011292 C37.93310328 19.10801535 38.15045371 20.6167541 38.36254883 22.1262207 C38.68614338 24.42785079 39.02605489 26.72659321 39.36914062 29.02539062 C39.58429098 30.49465175 39.7985146 31.96404895 40.01171875 33.43359375 C40.11167648 34.11707382 40.21163422 34.80055389 40.31462097 35.50474548 C41.65509155 45.10228195 41.65509155 45.10228195 39.3125 48.3125 C37 50 37 50 34.5 50.5625 C32 50 32 50 29.875 48.125 C27.37677855 43.96129758 26.19962193 39.68034312 25 35 C24.54109375 35.54269531 24.0821875 36.08539062 23.609375 36.64453125 C22.68898438 37.71767578 22.68898438 37.71767578 21.75 38.8125 C21.14671875 39.52019531 20.5434375 40.22789062 19.921875 40.95703125 C16.92802951 44.13951335 15.21416076 45.80922444 10.79296875 46.50390625 C-0.15280615 46.68178992 -0.15280615 46.68178992 -4.125 43.6875 C-10.46461207 36.72195154 -11.34691935 28.41107974 -11.4375 19.375 C-11.44773193 18.58778564 -11.45796387 17.80057129 -11.46850586 16.98950195 C-11.38454599 11.35949343 -10.46140089 6.11252728 -8 1 C-5.22899606 -0.38550197 -3.0665294 -0.1877467 0 0 Z " fill="#583D2A" transform="translate(575,909)"/>
<path d="M0 0 C1.70043945 1.21801758 1.70043945 1.21801758 3 3 C3.34057617 5.26831055 3.34057617 5.26831055 3.29296875 7.88671875 C3.28330078 8.82451172 3.27363281 9.76230469 3.26367188 10.72851562 C3.23853516 11.70498047 3.21339844 12.68144531 3.1875 13.6875 C3.16719727 15.16959961 3.16719727 15.16959961 3.14648438 16.68164062 C3.11112203 19.12164231 3.06177033 21.56054719 3 24 C4.06992187 23.84273437 5.13984375 23.68546875 6.2421875 23.5234375 C16.69450244 22.06750174 16.69450244 22.06750174 21.0625 25.1875 C23 28 23 28 23 30.625 C21.93843737 33.14621124 21.09817215 34.28050014 19 36 C17.09887695 36.43237305 17.09887695 36.43237305 14.98828125 36.51171875 C14.23095703 36.54716797 13.47363281 36.58261719 12.69335938 36.61914062 C11.90767578 36.64169922 11.12199219 36.66425781 10.3125 36.6875 C9.51521484 36.72166016 8.71792969 36.75582031 7.89648438 36.79101562 C5.93148096 36.87338104 3.96576304 36.93837067 2 37 C2.06058594 37.82089111 2.12117187 38.64178223 2.18359375 39.48754883 C2.41040361 42.58677477 2.63359825 45.68623588 2.85449219 48.78588867 C2.99663687 50.76565883 3.14280109 52.74513909 3.2890625 54.72460938 C4.77698765 75.71498197 4.77698765 75.71498197 2.375 79.6875 C-0.71363535 81.39437743 -2.52479479 81.59152429 -6 81 C-12.54820102 73.96757701 -10.11976227 60.75505662 -10.0625 51.875 C-10.05747139 50.52343917 -10.05291091 49.17187652 -10.04882812 47.8203125 C-10.03713711 44.54682735 -10.02075029 41.27343814 -10 38 C-11.05960937 38.03480469 -12.11921875 38.06960938 -13.2109375 38.10546875 C-14.59894252 38.13360399 -15.98696463 38.16090443 -17.375 38.1875 C-18.07367188 38.21263672 -18.77234375 38.23777344 -19.4921875 38.26367188 C-21.5234375 38.29296875 -21.5234375 38.29296875 -25 38 C-27.31282587 34.53076119 -27.42478586 33.07794425 -27 29 C-25.49452387 26.70216801 -24.42222519 26.13269935 -21.8125 25.3125 C-18.18760825 24.90973425 -14.64777263 24.9813699 -11 25 C-10.98541748 24.34926514 -10.97083496 23.69853027 -10.95581055 23.02807617 C-10.88135451 20.08061694 -10.78468734 17.13429358 -10.6875 14.1875 C-10.66494141 13.16333984 -10.64238281 12.13917969 -10.61914062 11.08398438 C-10.58369141 10.10107422 -10.54824219 9.11816406 -10.51171875 8.10546875 C-10.48553467 7.19949951 -10.45935059 6.29353027 -10.43237305 5.36010742 C-9.34763354 -0.56094101 -5.32558278 -0.57059816 0 0 Z " fill="#5A3F2C" transform="translate(518,879)"/>
<path d="M0 0 C3.4203866 1.17013226 3.91540482 1.87310723 6 5 C6.32319029 7.73797061 6.51951406 10.3762744 6.625 13.125 C6.66149658 13.96869141 6.69799316 14.81238281 6.7355957 15.68164062 C7.04101169 23.8699363 7.13277925 32.0638948 7.17523193 40.25726318 C7.18339383 41.74934764 7.19449012 43.241419 7.20855713 44.73345947 C7.22643852 46.85367339 7.2304529 48.9734694 7.23046875 51.09375 C7.23457764 52.32802734 7.23868652 53.56230469 7.24291992 54.83398438 C7.01038279 57.86467935 6.6703461 59.50301971 5 62 C2.08257155 64.33394276 0.15954903 64.97760715 -3.5625 65.5 C-7 65 -7 65 -9.375 62.625 C-11.64001897 58.9661232 -12.1551552 56.99276512 -12.31640625 52.70703125 C-12.3796106 51.06468506 -12.3796106 51.06468506 -12.4440918 49.38916016 C-12.50270386 47.61871338 -12.50270386 47.61871338 -12.5625 45.8125 C-12.62401245 44.00724854 -12.62401245 44.00724854 -12.68676758 42.16552734 C-12.94100739 34.15302537 -13.12941486 26.14140131 -13.1875 18.125 C-13.20047119 17.1760083 -13.21344238 16.2270166 -13.22680664 15.24926758 C-13.23422911 9.81948507 -12.79133913 5.88604637 -9.875 1.1875 C-6.79414176 -0.76371022 -3.49476042 -0.40948708 0 0 Z " fill="#E6BAA6" transform="translate(681,348)"/>
<path d="M0 0 C3.4375 2 3.4375 2 6 5 C6.87808119 9.86935932 6.57445874 12.51803274 3.85546875 16.61328125 C3.40373291 17.30800537 2.95199707 18.00272949 2.48657227 18.71850586 C1.99600342 19.47139893 1.50543457 20.22429199 1 21 C-0.03356429 22.67144775 -1.06200441 24.34607238 -2.0859375 26.0234375 C-2.62476563 26.9 -3.16359375 27.7765625 -3.71875 28.6796875 C-4.81729123 30.4674079 -5.91366958 32.25645931 -7.0078125 34.046875 C-9.8112505 38.59912433 -12.67669586 43.10501377 -15.6640625 47.5390625 C-16.20756348 48.34811035 -16.75106445 49.1571582 -17.31103516 49.99072266 C-19.87229636 53.03772753 -22.04876482 53.85832668 -25.9375 54.4375 C-29 54 -29 54 -31.875 52 C-34.09501444 48.86586196 -34.5487595 47.12581689 -34.43701172 43.328125 C-33.53454228 38.5203325 -30.70384044 34.58098727 -28.125 30.5 C-27.53726807 29.54182373 -26.94953613 28.58364746 -26.34399414 27.59643555 C-25.14765109 25.65118207 -23.94366769 23.71060591 -22.73193359 21.77490234 C-21.14670984 19.23505837 -19.59252671 16.6796683 -18.05078125 14.11328125 C-17.18062543 12.67911801 -16.30959204 11.24548669 -15.4375 9.8125 C-15.0451416 9.16023438 -14.6527832 8.50796875 -14.24853516 7.8359375 C-10.38667949 1.61415185 -7.54906567 -1.04125044 0 0 Z " fill="#E6BBA7" transform="translate(748,375)"/>
<path d="M0 0 C3.73412073 3.09398575 5.97055037 5.38797041 6.71875 10.30078125 C6.64244011 19.63920421 5.94460496 25.70589691 -0.5 32.75 C-4.63169896 35.32256728 -7.96603652 36.11708366 -12.8125 35.8125 C-17.07412669 34.14490695 -18.79284835 31.8518033 -20.8125 27.8125 C-23.1522321 20.79330371 -22.78779051 11.61316403 -19.8125 4.8125 C-14.52115268 -1.42857632 -7.66535169 -3.23648182 0 0 Z " fill="#F7EDE1" transform="translate(586.8125,494.1875)"/>
<path d="M0 0 C3.41666404 1.59246254 6.27125802 3.54251604 8 7 C8.7187958 13.42366877 9.22237209 19.27180336 5.1875 24.625 C4.16243355 25.78421095 3.10087215 26.91252046 2 28 C1.53980469 28.5465625 1.07960938 29.093125 0.60546875 29.65625 C-2.59684473 32.33653184 -6.97761405 32.1094089 -11 32 C-14.77502921 30.47392436 -16.89713795 28.46972239 -19 25 C-20.7628563 19.28295909 -20.82263749 13.22112123 -18.75 7.625 C-13.69561759 0.04342638 -8.84454643 -1.11925484 0 0 Z " fill="#F5ECDF" transform="translate(496,499)"/>
<path d="M0 0 C4.34094415 2.36778772 4.34094415 2.36778772 6 5 C7.10843768 10.08527516 6.57096663 13.89744374 4.1875 18.5 C1.95549455 21.05086337 0.27716275 22.75538688 -3.12109375 23.40625 C-7.44926399 23.58142046 -9.30911543 23.62508604 -12.625 20.625 C-14.46847676 15.7649249 -14.17983566 12.01220963 -13 7 C-10.15946436 0.8024677 -6.7416186 -0.79985305 0 0 Z " fill="#4A2A14" transform="translate(738,595)"/>
<path d="M0 0 C3 1.25 3 1.25 5 4 C5.95080378 10.46363721 5.83190226 15.56514853 2 21 C0.25 22.875 0.25 22.875 -2 24 C-5.51827355 23.87655181 -7.99655627 23.73585873 -10.875 21.625 C-13.73039964 17.50053386 -13.33779952 12.79675314 -13 8 C-10.95860225 0.77659258 -7.47833302 -1.20759074 0 0 Z " fill="#492914" transform="translate(795,604)"/>
<path d="M0 0 C1.9375 1.0625 1.9375 1.0625 3 3 C3.68336238 7.52727575 3.39058447 9.41970307 0.8125 13.25 C-3.61801474 17.58205886 -6.09420363 19.16122551 -12.3125 19.1875 C-13.87551517 19.13958275 -15.43839515 19.08187055 -17 19 C-18.40787874 14.77636379 -17.0629083 12.50869028 -15.36328125 8.51953125 C-11.92320023 2.16178839 -7.44225891 -1.28808327 0 0 Z " fill="#F2EADE" transform="translate(676,926)"/>
<path d="M0 0 C1.2065625 0.0309375 1.2065625 0.0309375 2.4375 0.0625 C3.4275 2.0425 4.4175 4.0225 5.4375 6.0625 C7.81124861 6.39675735 7.81124861 6.39675735 10.4375 6.0625 C12.28065671 4.1620533 12.28065671 4.1620533 13.4375 2.0625 C15.9125 2.5575 15.9125 2.5575 18.4375 3.0625 C19.25 5.25 19.25 5.25 19.4375 8.0625 C16.71747645 11.2971226 14.52520615 13.87336983 10.1953125 14.265625 C8.89207031 14.28882813 8.89207031 14.28882813 7.5625 14.3125 C6.26699219 14.35117187 6.26699219 14.35117187 4.9453125 14.390625 C1.95524897 13.99940173 0.59870725 13.13323811 -1.5625 11.0625 C-1.5625 10.4025 -1.5625 9.7425 -1.5625 9.0625 C-2.2225 9.0625 -2.8825 9.0625 -3.5625 9.0625 C-3.66015625 2.91015625 -3.66015625 2.91015625 -3.5625 1.0625 C-2.5625 0.0625 -2.5625 0.0625 0 0 Z " fill="#4E2B16" transform="translate(753.5625,615.9375)"/>
<path d="M0 0 C2.8125 0.4375 2.8125 0.4375 4.8125 2.4375 C5.25 4.8125 5.25 4.8125 4.8125 7.4375 C2.9375 9.75 2.9375 9.75 -0.1875 11.4375 C-3.54924475 11.76084339 -6.82199311 11.67275873 -10.1875 11.4375 C-8.68815359 5.57641858 -6.42821428 0.88230392 0 0 Z " fill="#F0E8DC" transform="translate(739.1875,912.5625)"/>
<path d="M0 0 C2.625 0.375 2.625 0.375 5 1 C5.04254356 2.99954746 5.04080783 5.00041636 5 7 C4 8 4 8 1.5 8.125 C-1 8 -1 8 -2 7 C-2.1875 4.5625 -2.1875 4.5625 -2 2 C-1.34 1.34 -0.68 0.68 0 0 Z " fill="#8C4B33" transform="translate(774,601)"/>
<path d="M0 0 C1.31097656 0.01353516 1.31097656 0.01353516 2.6484375 0.02734375 C3.62683594 0.04474609 3.62683594 0.04474609 4.625 0.0625 C4.625 0.3925 4.625 0.7225 4.625 1.0625 C3.59375 1.165625 2.5625 1.26875 1.5 1.375 C-2.55293151 2.09406849 -5.06705157 2.60077093 -8.375 5.0625 C-9.47145614 8.01611151 -9.99553632 10.94173839 -10.375 14.0625 C-10.705 14.0625 -11.035 14.0625 -11.375 14.0625 C-11.375 9.7725 -11.375 5.4825 -11.375 1.0625 C-7.26241141 0.37706857 -4.05237862 -0.05476187 0 0 Z " fill="#CDBFAF" transform="translate(531.375,914.9375)"/>
<path d="M0 0 C1.5625 1.6875 1.5625 1.6875 3 4 C2.58974359 8.41025641 2.58974359 8.41025641 1 10 C0.76472227 12.34987262 0.58613583 14.70556039 0.4375 17.0625 C0.35371094 18.35285156 0.26992188 19.64320313 0.18359375 20.97265625 C0.12300781 21.97167969 0.06242188 22.97070312 0 24 C-0.33 24 -0.66 24 -1 24 C-1.09579384 15.92138585 -1.12513633 8.01659634 0 0 Z " fill="#D3C4B4" transform="translate(578,913)"/>
<path d="M0 0 C0.33 0 0.66 0 1 0 C1.92017937 11.63856502 1.92017937 11.63856502 -0.3359375 14.9765625 C-2 16.3125 -2 16.3125 -5 18 C-5.66 17.67 -6.32 17.34 -7 17 C-6.21625 16.236875 -5.4325 15.47375 -4.625 14.6875 C-1.00469528 10.43133439 -0.6425777 5.38998013 0 0 Z " fill="#E0D3C5" transform="translate(757,914)"/>
<path d="M0 0 C2.76969285 4.15453928 3.09205378 8.05210951 3 13 C1.5625 16.625 1.5625 16.625 0 19 C-0.66 18.67 -1.32 18.34 -2 18 C-1.67257812 17.48953125 -1.34515625 16.9790625 -1.0078125 16.453125 C0.35648384 13.13227963 0.1912273 10.32627432 0.125 6.75 C0.10695313 5.48671875 0.08890625 4.2234375 0.0703125 2.921875 C0.04710937 1.95765625 0.02390625 0.9934375 0 0 Z " fill="#D5C7B8" transform="translate(884,531)"/>
<path d="M0 0 C0.66 0.33 1.32 0.66 2 1 C-0.64 3.97 -3.28 6.94 -6 10 C-6.99 9.67 -7.98 9.34 -9 9 C-6.03 6.03 -3.06 3.06 0 0 Z " fill="#664B38" transform="translate(563,479)"/>
<path d="M0 0 C0.33 0.66 0.66 1.32 1 2 C-0.60341555 2.33692785 -2.20776555 2.66941093 -3.8125 3 C-4.70582031 3.185625 -5.59914063 3.37125 -6.51953125 3.5625 C-9 4 -9 4 -12 4 C-7.99899414 0.12023674 -5.51903037 -0.43286513 0 0 Z " fill="#E9DED0" transform="translate(676,926)"/>
<path d="M0 0 C0.66 0.33 1.32 0.66 2 1 C1.67 1.33 1.34 1.66 1 2 C0.95936168 3.66617115 0.957279 5.33388095 1 7 C2.98 7 4.96 7 7 7 C6.34 8.32 5.68 9.64 5 11 C0.125 9.125 0.125 9.125 -1 8 C-1.125 4.5 -1.125 4.5 -1 1 C-0.67 0.67 -0.34 0.34 0 0 Z " fill="#AC5D45" transform="translate(772,601)"/>
<path d="M0 0 C0 0.33 0 0.66 0 1 C-0.7425 1.061875 -1.485 1.12375 -2.25 1.1875 C-5.83007591 2.2452497 -6.80146992 4.06862656 -9 7 C-9.99 7.33 -10.98 7.66 -12 8 C-9.40790268 1.95177293 -6.74363595 -0.61305781 0 0 Z " fill="#D7C8BA" transform="translate(742,913)"/>
<path d="M0 0 C0.33 0.99 0.66 1.98 1 3 C-0.32 4.32 -1.64 5.64 -3 7 C-3.99 6.67 -4.98 6.34 -6 6 C-2.25 1.125 -2.25 1.125 0 0 Z " fill="#684E3B" transform="translate(472,487)"/>
<path d="M0 0 C0.66 0.33 1.32 0.66 2 1 C-0.31 3.31 -2.62 5.62 -5 8 C-5.99 7.67 -6.98 7.34 -8 7 C-5.36 4.69 -2.72 2.38 0 0 Z " fill="#674D3B" transform="translate(404,433)"/>
<path d="M0 0 C0.33 0 0.66 0 1 0 C1.38133299 1.9914056 1.71325582 3.99279077 2 6 C1.67 6.33 1.34 6.66 1 7 C0.76636119 8.84891946 0.58696365 10.70488031 0.4375 12.5625 C0.35371094 13.57441406 0.26992188 14.58632813 0.18359375 15.62890625 C0.12300781 16.41136719 0.06242187 17.19382812 0 18 C-0.33 18 -0.66 18 -1 18 C-1.02717692 15.93757383 -1.0464758 13.87504297 -1.0625 11.8125 C-1.07410156 10.66394531 -1.08570313 9.51539063 -1.09765625 8.33203125 C-1.01192832 5.40699414 -0.67849023 2.83683709 0 0 Z " fill="#7A6453" transform="translate(460,504)"/>
<path d="M0 0 C2.64 0 5.28 0 8 0 C8 0.66 8 1.32 8 2 C5.36 2.33 2.72 2.66 0 3 C0 2.01 0 1.02 0 0 Z " fill="#F4E9DA" transform="translate(759,545)"/>
</svg>
